0
SECTION
2
HEADER
9
$INSUNITS
70
4
9
$ACADVER
1
AC1014
9
$HANDSEED
5
FFFF
0
ENDSEC
0
SECTION
2
TABLES
0
TABLE
2
VPORT
5
8
100
AcDbSymbolTable
0
ENDTAB
0
TABLE
2
LTYPE
5
5
100
AcDbSymbolTable
0
LTYPE
5
14
100
AcDbSymbolTableRecord
100
AcDbLinetypeTableRecord
2
BYBLOCK
70
0
0
LTYPE
5
15
100
AcDbSymbolTableRecord
100
AcDbLinetypeTableRecord
2
BYLAYER
70
0
0
ENDTAB
0
TABLE
2
LAYER
5
2
100
AcDbSymbolTable
70
2
0
LAYER
5
50
100
AcDbSymbolTableRecord
100
AcDbLayerTableRecord
2
0
70
0
6
CONTINUOUS
0
ENDTAB
0
TABLE
2
STYLE
5
3
100
AcDbSymbolTable
70
1
0
STYLE
5
11
100
AcDbSymbolTableRecord
100
AcDbTextStyleTableRecord
2
STANDARD
70
0
0
ENDTAB
0
TABLE
2
VIEW
5
6
100
AcDbSymbolTable
70
0
0
ENDTAB
0
TABLE
2
UCS
5
7
100
AcDbSymbolTable
70
0
0
ENDTAB
0
TABLE
2
APPID
5
9
100
AcDbSymbolTable
70
2
0
APPID
5
12
100
AcDbSymbolTableRecord
100
AcDbRegAppTableRecord
2
ACAD
70
0
0
ENDTAB
0
TABLE
2
DIMSTYLE
5
A
100
AcDbSymbolTable
70
1
0
ENDTAB
0
TABLE
2
BLOCK_RECORD
5
1
100
AcDbSymbolTable
70
1
0
BLOCK_RECORD
5
1F
100
AcDbSymbolTableRecord
100
AcDbBlockTableRecord
2
*MODEL_SPACE
0
BLOCK_RECORD
5
1B
100
AcDbSymbolTableRecord
100
AcDbBlockTableRecord
2
*PAPER_SPACE
0
ENDTAB
0
ENDSEC
0
SECTION
2
BLOCKS
0
BLOCK
5
20
100
AcDbEntity
100
AcDbBlockBegin
2
*MODEL_SPACE
0
ENDBLK
5
21
100
AcDbEntity
100
AcDbBlockEnd
0
BLOCK
5
1C
100
AcDbEntity
100
AcDbBlockBegin
2
*PAPER_SPACE
0
ENDBLK
5
1D
100
AcDbEntity
100
AcDbBlockEnd
0
ENDSEC
0
SECTION
2
ENTITIES
0
LWPOLYLINE
5
100
100
AcDbEntity
8
0
100
AcDbPolyline
90
10
70
1
43
0.0
10
-3.0056907356150564
20
24.364192641184601
10
-3.9244906996347675
20
28.903153655563557
42
-0.085754115860416077
10
3.9244906996431479
20
28.903153655562104
10
2.9995164992694665
20
24.333691314241786
42
0.17718291891377311
10
3.3747380967949847
20
21.867686694425082
10
16.194981624842466
20
-1.5036792316283163
42
-0.28508599352040176
10
16.008138708189641
20
-4.9789390190479788
42
-0.52209763830816169
10
-16.023560900601492
20
-4.9568006229899524
42
-0.28471237438707381
10
-16.207796435823745
20
-1.4852837043712608
10
-3.3809123331400399
20
21.898188021370679
42
0.17718291891355945
0
LWPOLYLINE
5
101
100
AcDbEntity
8
0
100
AcDbPolyline
90
6
70
1
43
0.0
10
-2.6400000000000023
20
4.6649901750521749
10
-5.5511151231257827e-16
20
3.1407854643915623
10
2.6400000000000001
20
4.6649901750521758
10
2.6400000000000001
20
7.7133995963734003
10
-1.6653345369377348e-15
20
9.2376043070340117
10
-2.6400000000000032
20
7.7133995963733977
0
LWPOLYLINE
5
102
100
AcDbEntity
8
0
100
AcDbPolyline
90
10
70
1
43
0.0
10
12.994660716417499
20
-5.5209346965925832
42
-0.15405754801175614
10
3.9184350472568381
20
-10.858802320692917
42
-0.48204400867791092
10
0.98999999999994404
20
-8.5271012517044866
10
0.98999999999997534
20
0.36523640735323637
42
-0.29438815141356506
10
1.9587767739983877
20
1.8680454159621069
42
0.65703325908814803
10
1.8071950756939359
20
10.575900386275791
42
-0.30386976491576739
10
0.98999999999999488
20
11.796386849983344
10
0.98999999999943156
20
20.597882872896164
42
-0.77605175270300464
10
1.6093288440263098
20
20.756592734007807
10
13.524843782356147
20
-0.96544859943664851
42
-0.31899801781968568
0
LWPOLYLINE
5
103
100
AcDbEntity
8
0
100
AcDbPolyline
90
10
70
1
43
0.0
10
-3.9184350472568816
20
-10.858802320692906
42
-0.15405754801155111
10
-12.994660716408148
20
-5.5209346966029607
42
-0.31899801781977738
10
-13.524843782349802
20
-0.96544859944629025
10
-1.6093288440272355
20
20.756592734008841
42
-0.77605175270315641
10
-0.99000000000028532
20
20.597882872897348
10
-0.99000000000028776
20
11.79638684998331
42
-0.30386976491577122
10
-1.8071950756941657
20
10.575900386275698
42
0.65703325908812737
10
-1.9587767739984154
20
1.8680454159621185
42
-0.29438815141356311
10
-0.99000000000001365
20
0.36523640735325325
10
-0.98999999999997479
20
-8.5271012517044724
42
-0.48204400867791186
0
ENDSEC
0
SECTION
2
OBJECTS
0
DICTIONARY
5
C
100
AcDbDictionary
3
ACAD_GROUP
350
D
3
ACAD_MLINESTYLE
350
17
0
DICTIONARY
5
D
100
AcDbDictionary
0
DICTIONARY
5
1A
330
C
100
AcDbDictionary
0
DICTIONARY
5
17
100
AcDbDictionary
0
ENDSEC
0
EOF
